<?xml version="1.0" encoding="iso-8859-1"?>
<!-- Generator: Adobe Illustrator 19.0.0, SVG Export Plug-In . SVG Version: 6.00 Build 0)  -->
<svg version="1.1" id="Layer_1" xmlns="http://www.w3.org/2000/svg" xmlns:xlink="http://www.w3.org/1999/xlink" x="0px" y="0px"
	 viewBox="0 0 512 512" style="enable-background:new 0 0 512 512;" xml:space="preserve">
<g>
	<g>
		<g>
			<path d="M256,0C114.844,0,0,114.844,0,256s114.844,256,256,256s256-114.844,256-256S397.156,0,256,0z M266.667,490.126v-31.46
				c0-5.896-4.771-10.667-10.667-10.667s-10.667,4.771-10.667,10.667v31.46c-120.868-5.473-217.987-102.591-223.46-223.46h31.46
				C59.229,266.667,64,261.896,64,256s-4.771-10.667-10.667-10.667h-31.46c5.473-120.868,102.591-217.987,223.46-223.46v31.46
				C245.333,59.229,250.104,64,256,64s10.667-4.771,10.667-10.667v-31.46c120.868,5.473,217.987,102.591,223.46,223.46h-31.46
				c-5.896,0-10.667,4.771-10.667,10.667s4.771,10.667,10.667,10.667h31.46C484.654,387.535,387.535,484.654,266.667,490.126z"/>
			<path d="M276.281,261.198c0.441-1.707,1.052-3.355,1.052-5.198c0-4.465-1.698-8.382-4.053-11.811l67.053-143.678
				c2.49-5.333,0.188-11.688-5.156-14.177C329.854,83.885,323.5,86.167,321,91.49l-67.005,143.583
				c-10.776,1.063-19.328,9.878-19.328,20.927c0,11.76,9.573,21.333,21.333,21.333c1.842,0,3.491-0.611,5.198-1.052l83.26,83.26
				c2.083,2.083,4.813,3.125,7.542,3.125c2.729,0,5.458-1.042,7.542-3.125c4.167-4.167,4.167-10.917,0-15.083L276.281,261.198z"/>
		</g>
	</g>
</g>
<g>
</g>
<g>
</g>
<g>
</g>
<g>
</g>
<g>
</g>
<g>
</g>
<g>
</g>
<g>
</g>
<g>
</g>
<g>
</g>
<g>
</g>
<g>
</g>
<g>
</g>
<g>
</g>
<g>
</g>
</svg>
