<svg id="Capa_1" enable-background="new 0 0 512 512" height="512" viewBox="0 0 512 512" width="512" xmlns="http://www.w3.org/2000/svg"><g><path d="m391 512v-60h60v-452h-330v60h-60v353.213l98.787 98.787zm-240-51.213-38.787-38.787h38.787zm0-430.787h270v392h-30v-362h-240zm210 60v392h-180v-90h-90v-302z"/><path d="m206.606 161.607-21.212-21.214-34.394 34.394-19.394-19.394-21.212 21.214 40.606 40.606z"/><path d="m226 181h105v30h-105z"/><path d="m206.606 236.607-21.212-21.214-34.394 34.394-19.394-19.394-21.212 21.214 40.606 40.606z"/><path d="m226 256h105v30h-105z"/><path d="m206.606 311.607-21.212-21.214-34.394 34.394-19.394-19.394-21.212 21.214 40.606 40.606z"/><path d="m226 331h105v30h-105z"/></g></svg>